<svg id="Layer_1" viewBox="0 0 24 24"
    xmlns="http://www.w3.org/2000/svg" data-name="Layer 1">
    <path d="m23.854 23.146-7.302-7.303c1.517-1.684 2.449-3.904 2.449-6.344-.001-5.237-4.263-9.499-9.501-9.499s-9.5 4.262-9.5 9.5 4.262 9.5 9.5 9.5c2.44 0 4.66-.932 6.344-2.449l7.302 7.303c.195.195.512.195.707 0s.195-.512 0-.707zm-22.854-13.646c0-4.687 3.813-8.5 8.5-8.5s8.5 3.813 8.5 8.5-3.813 8.5-8.5 8.5-8.5-3.813-8.5-8.5zm12.5-4.5c-.276 0-.5.224-.5.5v.5c0 .529-.416.953-.937.987-.272-1.166-1.385-1.988-2.564-1.987-1.156-.003-2.26.802-2.565 1.987-.52-.036-.934-.459-.934-.987v-.5c0-.276-.224-.5-.5-.5s-.5.224-.5.5v.5c0 .996.734 1.817 1.688 1.968l-.259 1.032h-.928c-.276 0-.5.224-.5.5s.224.5.5.5h.677c-.06.208-.073.409-.077.637 0 .191.026.375.056.557-.688.324-1.155 1.02-1.155 1.806v.5c0 .276.224.5.5.5s.5-.224.5-.5v-.5c0-.351.186-.668.471-.847.554 1.098 1.683 1.845 3.03 1.847 1.345-.002 2.473-.748 3.027-1.849.285.179.472.497.472.849v.5c0 .276.224.5.5.5s.5-.224.5-.5v-.5c0-.784-.468-1.483-1.156-1.806.031-.185.056-.372.056-.567-.004-.216-.018-.422-.077-.626h.676c.276 0 .5-.224.5-.5s-.224-.5-.5-.5h-.929l-.26-1.031c.954-.151 1.689-.972 1.689-1.969v-.5c0-.276-.224-.5-.5-.5zm-3.999 8c-1.345-.001-2.399-1.04-2.401-2.353.002-.109.004-.214.021-.297l.813-3.245c.242-.66.872-1.104 1.565-1.105.695 0 1.325.445 1.552 1.056l.826 3.282c.02.101.021.203.023.298-.002 1.324-1.057 2.362-2.399 2.364z" fill="#ff0000"/>
</svg>